<svg width="32" height="32" viewBox="0 0 32 32" fill="none" xmlns="http://www.w3.org/2000/svg">
  <!-- Outer Housing -->
  <circle cx="16" cy="16" r="15.5" fill="url(#gradient1)" stroke="#3f3f46" stroke-width="0.5"/>
  <defs>
    <linearGradient id="gradient1" x1="0" y1="0" x2="32" y2="32" gradientUnits="userSpaceOnUse">
      <stop offset="0%" stop-color="#27272a"/>
      <stop offset="100%" stop-color="#09090b"/>
    </linearGradient>
  </defs>
  
  <!-- Internal Aperture Ring -->
  <circle cx="16" cy="16" r="12.5" fill="#18181b" stroke="#3f3f46" stroke-width="0.5" opacity="0.5"/>
  
  <!-- AI Sensor Chip -->
  <rect x="12" y="12" width="8" height="8" rx="0.5" fill="#09090b" stroke="#52525b" stroke-width="0.5"/>
  
  <!-- Grid Pattern on Chip -->
  <pattern id="grid" width="2" height="2" patternUnits="userSpaceOnUse">
    <path d="M 2 0 L 0 0 0 2" fill="none" stroke="#3f3f46" stroke-width="0.5" opacity="0.3"/>
  </pattern>
  <rect x="12" y="12" width="8" height="8" fill="url(#grid)"/>
  
  <!-- AI Symbol -->
  <path d="M 14.5 18.5 L 14.5 13.5 L 19.5 18.5 L 19.5 13.5" stroke="white" stroke-width="1.5" fill="none" stroke-linecap="round" stroke-linejoin="round"/>
  
  <!-- Focus Brackets -->
  <path d="M 2 6 L 2 2 L 6 2" stroke="#71717a" stroke-width="0.5" opacity="0.6" fill="none"/>
  <path d="M 26 2 L 30 2 L 30 6" stroke="#71717a" stroke-width="0.5" opacity="0.6" fill="none"/>
  <path d="M 2 26 L 2 30 L 6 30" stroke="#71717a" stroke-width="0.5" opacity="0.6" fill="none"/>
  <path d="M 30 26 L 30 30 L 26 30" stroke="#71717a" stroke-width="0.5" opacity="0.6" fill="none"/>
</svg>
