<svg version="1.1" id="Layer_1" xmlns="http://www.w3.org/2000/svg" xmlns:xlink="http://www.w3.org/1999/xlink" x="0px" y="0px"
	 width="100%" viewBox="0 0 495 495" enable-background="new 0 0 495 495" xml:space="preserve">
<path fill="#95D1F8" opacity="1.000000" stroke="none" 
	d="
M217.000000,1.000001 
	C237.687561,1.000000 258.375122,1.000000 279.233276,1.365741 
	C280.077332,2.145876 280.702179,2.781206 281.431549,2.941933 
	C295.139008,5.962526 309.009155,8.372659 322.538666,12.041244 
	C340.020752,16.781599 356.326324,24.538311 372.087128,33.496613 
	C387.985138,42.532909 402.707581,53.204998 415.958374,65.689201 
	C425.423065,74.606346 434.145935,84.378929 442.581482,94.295776 
	C447.983063,100.645905 452.259277,107.953278 456.683289,114.899200 
	C443.219604,121.084732 432.640442,130.153152 424.424805,142.057205 
	C411.504578,160.777969 407.399811,181.464294 410.755554,203.731613 
	C412.856720,217.674011 418.597565,230.137711 427.441986,241.082214 
	C430.573639,244.957504 431.307556,248.741669 429.714508,253.491745 
	C426.336426,263.564453 423.112579,273.703491 420.337524,283.953979 
	C419.609528,286.642975 420.756653,289.839600 420.954376,293.152039 
	C419.824524,295.174866 418.776550,296.844818 417.742340,298.523254 
	C412.755341,306.616913 407.772034,314.712830 402.584045,322.834259 
	C402.380707,322.860565 401.967896,322.852814 401.817200,322.564453 
	C396.865295,318.224335 392.393127,313.676147 387.191681,310.228180 
	C377.529297,303.823120 367.514282,297.936066 357.515259,292.055786 
	C338.083588,280.628418 318.561462,269.354889 298.942810,257.632324 
	C297.476013,248.175003 296.143188,239.103012 294.896484,229.725952 
	C295.030670,229.001648 295.078766,228.582413 295.526306,228.236252 
	C307.351959,230.933640 317.562134,228.657715 325.620758,219.938217 
	C335.503174,209.245361 335.662140,197.035980 329.791870,184.289886 
	C364.979553,180.112854 379.508423,151.947098 378.235291,130.314133 
	C377.501251,117.841431 373.267914,106.948921 364.882629,97.764893 
	C352.937195,84.681519 337.797638,79.639946 320.683105,81.004784 
	C308.662842,45.572979 285.833282,21.678780 248.235245,18.504129 
	C203.209549,14.702312 175.964111,39.771923 160.930817,80.281998 
	C123.446930,74.758743 102.249863,100.911942 99.065758,123.607491 
	C95.075119,152.051727 114.990402,182.249756 151.904831,183.291275 
	C145.361023,195.598572 145.129059,207.638351 154.240128,218.677460 
	C162.229004,228.356903 172.812698,230.976135 184.887024,228.786316 
	C183.247482,240.470688 181.594177,251.694519 179.589828,262.976929 
	C160.551071,273.855530 141.656418,284.337708 123.248474,295.614380 
	C110.978210,303.131104 99.412209,311.795715 87.493706,319.891724 
	C86.591774,320.504364 85.391113,320.677216 84.020607,320.874878 
	C80.449677,315.531403 77.187447,310.367523 74.025124,304.837097 
	C74.420677,301.819611 75.541054,298.938324 74.875633,296.555817 
	C71.084305,282.981110 66.957321,269.497131 62.744923,256.044769 
	C61.305962,251.449432 62.132538,247.843765 65.235207,244.123962 
	C80.537674,225.777557 87.546776,204.205063 87.745590,180.657440 
	C87.888657,163.712097 83.788452,147.354782 75.452003,132.450485 
	C68.765045,120.495239 60.450760,109.736397 49.086617,101.522781 
	C59.991066,86.199959 72.618759,72.950478 86.563660,60.839336 
	C105.542938,44.355846 126.483391,31.080759 149.526520,21.111656 
	C170.509949,12.033641 192.232529,5.575059 215.015625,2.920754 
	C215.741806,2.836150 216.341400,1.664758 217.000000,1.000001 
z"/>
<path fill="#000000" opacity="1.000000" stroke="none" 
	d="
M457.039978,114.831543 
	C452.259277,107.953278 447.983063,100.645905 442.581482,94.295776 
	C434.145935,84.378929 425.423065,74.606346 415.958374,65.689201 
	C402.707581,53.204998 387.985138,42.532909 372.087128,33.496613 
	C356.326324,24.538311 340.020752,16.781599 322.538666,12.041244 
	C309.009155,8.372659 295.139008,5.962526 281.431549,2.941933 
	C280.702179,2.781206 280.077332,2.145876 279.701904,1.365741 
	C351.927032,1.000000 423.854065,1.000000 496.000000,1.000000 
	C496.000000,72.687416 496.000000,144.375046 495.649353,216.825897 
	C494.078613,214.747406 492.858490,211.905701 492.002472,209.911957 
	C492.002472,206.739014 492.381683,204.186844 491.942322,201.784393 
	C488.510681,183.020035 483.032898,164.884491 474.868317,147.282623 
	C468.969543,136.234009 463.004761,125.532776 457.039978,114.831543 
z"/>
<path fill="#000000" opacity="1.000000" stroke="none" 
	d="
M216.531342,1.000001 
	C216.341400,1.664758 215.741806,2.836150 215.015625,2.920754 
	C192.232529,5.575059 170.509949,12.033641 149.526520,21.111656 
	C126.483391,31.080759 105.542938,44.355846 86.563660,60.839336 
	C72.618759,72.950478 59.991066,86.199959 48.763432,101.677422 
	C37.893414,116.049522 29.500637,131.133255 22.093475,147.218170 
	C17.459526,160.488297 12.353805,173.218491 8.530946,186.322952 
	C5.836357,195.559784 4.883713,205.304764 3.079451,215.236130 
	C2.337049,216.099594 1.668526,216.549805 1.000001,217.000000 
	C1.000000,145.072968 1.000000,73.145920 1.000000,1.000000 
	C72.687416,1.000000 144.375046,1.000000 216.531342,1.000001 
z"/>
<path fill="#000000" opacity="1.000000" stroke="none" 
	d="
M217.000000,496.000000 
	C145.072968,496.000000 73.145935,496.000000 1.000000,496.000000 
	C1.000000,424.312592 1.000000,352.624939 1.337354,280.169861 
	C2.159743,279.751251 2.644778,280.100098 3.063202,280.851044 
	C3.979179,287.185577 4.829627,293.143463 5.966244,299.046204 
	C12.349940,332.198303 25.711388,362.375519 45.078705,390.345703 
	C58.811539,409.429443 74.343224,426.291382 92.344429,441.039886 
	C115.592728,460.087372 141.553696,474.004852 169.780334,483.758362 
	C178.970291,486.933899 188.713058,488.509613 198.394043,490.893005 
	C198.585083,490.969025 198.977982,491.090454 199.164551,491.453766 
	C204.924683,492.557800 210.503952,493.261414 216.059875,494.116791 
	C216.460403,494.178467 216.690613,495.346405 217.000000,496.000000 
z"/>
<path fill="#000000" opacity="1.000000" stroke="none" 
	d="
M496.000000,280.000000 
	C496.000000,351.927032 496.000000,423.854065 496.000000,496.000000 
	C424.312592,496.000000 352.624939,496.000000 280.176819,495.681183 
	C280.340118,494.866882 281.263885,494.371429 282.588989,493.959045 
	C293.612640,491.804596 304.234985,489.567017 315.250061,487.200043 
	C340.445587,480.512939 363.315796,469.679565 384.764984,455.736206 
	C402.718628,444.065094 418.572388,429.899750 433.108948,414.265167 
	C437.209991,409.854248 440.542847,404.729034 444.517517,399.776855 
	C452.216003,388.350861 460.221741,377.416870 466.845856,365.701691 
	C472.181305,356.265442 475.846741,345.884918 480.553986,335.728455 
	C481.201965,334.483948 481.590942,333.446167 481.889648,332.382996 
	C484.238892,324.021881 486.570892,315.655914 489.253998,307.064667 
	C491.073029,298.443237 492.509979,290.041748 494.090210,281.667206 
	C494.213348,281.014587 495.339813,280.551270 496.000000,280.000000 
z"/>
<path fill="#FEFFFF" opacity="1.000000" stroke="none" 
	d="
M3.129811,280.448914 
	C2.644778,280.100098 2.159743,279.751251 1.337354,279.701233 
	C1.000000,259.312439 1.000000,238.624878 1.000001,217.468658 
	C1.668526,216.549805 2.337049,216.099594 3.354181,215.088470 
	C11.464189,206.773590 19.356602,199.145584 26.958221,191.238037 
	C40.496365,177.155045 38.185688,156.451630 22.169903,146.838196 
	C29.500637,131.133255 37.893414,116.049522 48.632584,101.994568 
	C60.450760,109.736397 68.765045,120.495239 75.452003,132.450485 
	C83.788452,147.354782 87.888657,163.712097 87.745590,180.657440 
	C87.546776,204.205063 80.537674,225.777557 65.235207,244.123962 
	C62.132538,247.843765 61.305962,251.449432 62.744923,256.044769 
	C66.957321,269.497131 71.084305,282.981110 74.875633,296.555817 
	C75.541054,298.938324 74.420677,301.819611 73.650284,304.876038 
	C69.476974,306.982544 66.508362,305.637573 63.595623,303.253510 
	C52.919167,294.514832 42.106483,285.941650 31.482533,277.140289 
	C28.434696,274.615326 25.586779,274.272278 21.857832,275.469452 
	C15.715398,277.441498 9.382453,278.820160 3.129811,280.448914 
z"/>
<path fill="#FFFFFF" opacity="1.000000" stroke="none" 
	d="
M282.187653,493.875916 
	C281.263885,494.371429 280.340118,494.866882 279.708160,495.681183 
	C259.312439,496.000000 238.624878,496.000000 217.468658,496.000000 
	C216.690613,495.346405 216.460403,494.178467 216.059875,494.116791 
	C210.503952,493.261414 204.924683,492.557800 199.210983,490.980042 
	C199.063263,451.984222 199.022720,413.825439 199.067123,375.666748 
	C199.081451,363.345612 207.524994,354.995605 219.803345,354.974304 
	C236.966400,354.944519 254.145660,355.417084 271.286926,354.804932 
	C282.356354,354.409637 292.481384,364.084045 292.177002,375.967072 
	C291.699249,394.617554 292.056366,413.289398 291.589539,432.026917 
	C269.490387,432.114716 247.861481,432.085938 226.232956,432.163177 
	C218.547913,432.190613 215.371597,437.093933 218.418549,444.080292 
	C220.145828,448.040741 222.327362,451.815186 223.880859,455.836945 
	C227.977966,466.443756 235.406326,473.116119 245.989777,477.344940 
	C258.293213,482.260956 270.141693,488.315521 282.187653,493.875916 
z"/>
<path fill="#FEFEFF" opacity="1.000000" stroke="none" 
	d="
M456.683289,114.899200 
	C463.004761,125.532776 468.969543,136.234009 474.503143,147.349731 
	C450.993591,156.779938 439.562653,185.500427 450.305328,208.408813 
	C459.314819,227.621292 475.152374,236.101868 496.000000,236.000000 
	C496.000000,248.020889 496.000000,260.041779 495.611053,272.197693 
	C493.970795,272.593842 492.661774,273.234802 491.477509,273.054840 
	C483.331421,271.816711 475.000824,271.123199 467.152771,268.815369 
	C461.351898,267.109558 457.253632,267.531464 452.751526,271.583252 
	C445.610840,278.009735 437.865936,283.759766 430.571198,290.022583 
	C427.684113,292.501251 424.740082,293.653625 421.042664,292.803101 
	C420.756653,289.839600 419.609528,286.642975 420.337524,283.953979 
	C423.112579,273.703491 426.336426,263.564453 429.714508,253.491745 
	C431.307556,248.741669 430.573639,244.957504 427.441986,241.082214 
	C418.597565,230.137711 412.856720,217.674011 410.755554,203.731613 
	C407.399811,181.464294 411.504578,160.777969 424.424805,142.057205 
	C432.640442,130.153152 443.219604,121.084732 456.683289,114.899200 
z"/>
<path fill="#3F60FF" opacity="1.000000" stroke="none" 
	d="
M420.954407,293.152039 
	C424.740082,293.653625 427.684113,292.501251 430.571198,290.022583 
	C437.865936,283.759766 445.610840,278.009735 452.751526,271.583252 
	C457.253632,267.531464 461.351898,267.109558 467.152771,268.815369 
	C475.000824,271.123199 483.331421,271.816711 491.477509,273.054840 
	C492.661774,273.234802 493.970795,272.593842 495.611053,272.666382 
	C496.000000,275.041656 496.000000,277.083344 496.000000,279.562500 
	C495.339813,280.551270 494.213348,281.014587 494.090210,281.667206 
	C492.509979,290.041748 491.073029,298.443237 488.916443,306.868500 
	C487.382568,303.725464 486.684235,300.500580 485.636658,297.393402 
	C484.682617,294.563690 483.349426,291.861755 482.183380,289.103516 
	C480.968994,291.769470 479.706055,294.414948 478.567596,297.112915 
	C478.187531,298.013641 477.996979,299.041168 477.940033,300.023529 
	C477.634186,305.296875 475.042450,308.408783 469.797638,309.664276 
	C468.137756,310.061615 466.793518,311.777557 465.304810,312.890045 
	C466.868988,313.942047 468.304321,315.535187 470.021637,315.944092 
	C475.076752,317.147858 477.431274,320.123352 477.967590,325.219147 
	C478.347351,328.827454 479.464935,332.358063 480.253174,335.923370 
	C475.846741,345.884918 472.181305,356.265442 466.845856,365.701691 
	C460.221741,377.416870 452.216003,388.350861 444.449097,399.382141 
	C441.956268,391.842377 440.239563,384.388000 437.607391,377.272308 
	C429.970093,356.626099 418.025818,338.641541 402.787415,322.807953 
	C407.772034,314.712830 412.755341,306.616913 417.742340,298.523254 
	C418.776550,296.844818 419.824524,295.174866 420.954407,293.152039 
z"/>
<path fill="#FEBD6F" opacity="1.000000" stroke="none" 
	d="
M496.000000,235.531723 
	C475.152374,236.101868 459.314819,227.621292 450.305328,208.408813 
	C439.562653,185.500427 450.993591,156.779938 474.437134,147.697113 
	C483.032898,164.884491 488.510681,183.020035 491.942322,201.784393 
	C492.381683,204.186844 492.002472,206.739014 492.002472,209.911957 
	C492.858490,211.905701 494.078613,214.747406 495.649353,217.294556 
	C496.000000,223.021149 496.000000,229.042297 496.000000,235.531723 
M460.097473,198.576950 
	C462.661407,198.611694 465.468628,199.275818 467.687500,198.418030 
	C468.811859,197.983368 469.662750,194.613922 469.255066,192.900055 
	C468.363739,189.152740 465.238678,188.208801 461.775421,189.314102 
	C458.570923,190.336838 457.752960,194.028488 460.097473,198.576950 
M468.910065,173.330185 
	C470.153809,173.850739 471.541809,175.005722 472.611816,174.762360 
	C474.979858,174.223801 477.253693,173.108215 479.432007,171.971329 
	C480.430389,171.450256 481.112732,170.323685 481.938385,169.471695 
	C480.750183,168.854630 479.237396,167.434921 478.430725,167.761185 
	C475.159149,169.084366 472.104584,170.944061 468.910065,173.330185 
M474.910797,185.939316 
	C477.444458,185.939316 479.978119,185.939316 482.919891,185.939316 
	C479.917572,181.700104 475.635132,180.971405 473.070007,183.831299 
	C472.854065,184.072037 473.708466,185.272797 474.910797,185.939316 
z"/>
<path fill="#E37B4C" opacity="1.000000" stroke="none" 
	d="
M294.810394,230.031036 
	C296.143188,239.103012 297.476013,248.175003 298.895203,258.062744 
	C300.132294,267.772156 301.659912,276.640503 302.258423,285.571136 
	C302.517700,289.440094 302.143280,294.554474 299.852875,297.182159 
	C290.166382,308.294952 280.710205,320.049805 269.176758,329.002197 
	C253.976944,340.800446 235.996597,341.759735 218.800415,332.699615 
	C202.806931,324.273102 191.230896,310.423035 179.509537,297.022003 
	C176.287964,293.338745 176.778168,288.718506 177.403275,284.159668 
	C178.371826,277.096039 179.106842,270.000397 179.940887,262.918335 
	C181.594177,251.694519 183.247482,240.470688 184.979965,228.428619 
	C185.861435,222.033630 186.930359,216.475800 187.327652,210.870361 
	C187.475342,208.786499 186.649826,206.025223 185.245880,204.537521 
	C175.364227,194.066422 168.317398,182.108948 165.089706,167.743927 
	C166.793961,165.550919 168.756912,163.873596 169.837112,161.747711 
	C171.901016,157.685822 170.992416,153.825043 167.975998,150.397049 
	C164.146591,146.045120 159.567947,145.019730 154.118225,146.676422 
	C152.710037,140.520432 150.686325,134.780701 150.285233,128.929733 
	C149.869095,122.859200 152.394791,117.438087 158.484360,113.593544 
	C158.712845,115.980782 158.750580,117.769798 159.077637,119.504257 
	C159.776413,123.210075 162.032120,125.643776 165.849503,125.630867 
	C169.726044,125.617760 171.892014,123.282837 172.135040,119.307892 
	C172.389191,115.150909 172.673096,110.995514 172.977234,106.841866 
	C174.664719,83.796280 184.809280,66.426468 206.955872,57.695004 
	C222.232468,51.672089 238.227524,49.675568 254.540024,51.970036 
	C278.990906,55.409225 296.837524,67.981400 304.949341,91.715462 
	C307.840363,100.174255 307.930603,109.635986 308.907745,118.682205 
	C309.337982,122.665100 310.449890,125.684212 314.777893,125.915337 
	C319.011108,126.141388 321.690491,123.996849 322.190094,119.538605 
	C322.287689,118.667778 322.722504,117.834747 323.083771,116.734543 
	C324.161682,117.351997 324.928680,117.682236 325.570465,118.175438 
	C334.701416,125.192825 335.674500,137.567047 327.612732,148.997955 
	C326.428040,148.680771 325.668915,148.304520 324.868225,148.162155 
	C319.450958,147.198898 314.100677,149.317215 311.917786,153.237350 
	C308.848053,158.750214 309.541870,162.880066 314.333038,167.902527 
	C315.001831,168.603592 315.532532,169.436432 316.153076,170.591431 
	C312.536591,184.423386 305.412384,195.767334 295.472992,205.446304 
	C294.104034,206.779388 293.078186,208.464813 291.549622,210.027313 
	C287.183746,212.689468 283.168365,215.321609 279.138519,217.931458 
	C267.562622,225.428375 254.862076,229.800278 241.099854,228.782059 
	C232.452759,228.142273 223.983765,225.291153 215.377502,223.753220 
	C213.454773,223.409653 211.291733,224.410858 209.239334,224.792938 
	C210.373627,226.796005 211.019089,229.589340 212.735641,230.651154 
	C217.524277,233.613297 222.518036,236.750641 227.868668,238.181580 
	C236.412369,240.466507 245.337479,242.813858 254.051285,242.639084 
	C268.569183,242.347916 282.481476,238.297409 294.810394,230.031036 
M195.788544,108.613480 
	C197.765854,108.525383 199.911697,108.902962 201.688217,108.260048 
	C206.605453,106.480507 211.484177,104.501602 216.135880,102.126976 
	C217.994232,101.178314 220.386780,99.044731 220.472809,97.346024 
	C220.625610,94.328552 217.786652,92.318092 214.915482,93.334587 
	C208.588745,95.574448 202.370178,98.231476 196.379562,101.257050 
	C193.792191,102.563805 193.100525,105.389709 195.788544,108.613480 
M285.436615,107.025665 
	C287.331665,104.262764 286.473297,101.967270 284.085022,100.110115 
	C278.437408,95.718414 272.020721,93.257042 264.861725,92.874306 
	C261.945557,92.718407 259.510345,94.123383 260.080292,97.068825 
	C260.430420,98.878372 262.631836,100.862343 264.488098,101.741310 
	C268.893982,103.827553 273.532623,105.483597 278.193298,106.942696 
	C280.300537,107.602402 282.684143,107.379265 285.436615,107.025665 
M275.792328,162.786499 
	C274.407318,163.174881 272.411682,163.108337 271.731232,164.021652 
	C264.505005,173.720444 255.125946,177.312073 243.263077,174.971405 
	C241.916412,174.705704 240.263657,175.991302 238.752823,176.557571 
	C239.990189,177.784271 241.024948,179.691162 242.497086,180.129623 
	C253.837051,183.507217 269.183807,177.724564 275.466614,167.789795 
	C276.216156,166.604568 276.026581,164.825424 275.792328,162.786499 
M279.886047,128.843246 
	C277.900238,123.353172 273.057892,121.248863 265.587341,123.039948 
	C262.163757,123.860756 258.412964,124.897354 258.995789,129.608780 
	C266.118256,129.608780 272.824188,129.608780 279.886047,128.843246 
M201.431961,127.306946 
	C199.986542,131.042740 202.112473,131.045975 204.893066,130.844940 
	C209.004410,130.547653 213.140518,130.609009 217.258774,130.383835 
	C218.869858,130.295761 220.461151,129.845688 222.061447,129.560486 
	C221.070938,127.958336 220.438873,125.850861 219.023865,124.847153 
	C214.465942,121.614098 207.245728,122.562660 201.431961,127.306946 
z"/>
<path fill="#A3F7CA" opacity="1.000000" stroke="none" 
	d="
M179.589813,262.976929 
	C179.106842,270.000397 178.371826,277.096039 177.403275,284.159668 
	C176.778168,288.718506 176.287964,293.338745 179.509537,297.022003 
	C191.230896,310.423035 202.806931,324.273102 218.800415,332.699615 
	C235.996597,341.759735 253.976944,340.800446 269.176758,329.002197 
	C280.710205,320.049805 290.166382,308.294952 299.852875,297.182159 
	C302.143280,294.554474 302.517700,289.440094 302.258423,285.571136 
	C301.659912,276.640503 300.132294,267.772156 299.029175,258.448090 
	C318.561462,269.354889 338.083588,280.628418 357.515259,292.055786 
	C367.514282,297.936066 377.529297,303.823120 387.191681,310.228180 
	C392.393127,313.676147 396.865295,318.224335 401.660889,322.872620 
	C385.426422,348.608490 369.225708,373.766022 352.959839,398.881378 
	C340.315033,418.405579 327.588989,437.877228 314.836548,456.877991 
	C314.660583,452.562134 314.825226,448.707581 314.376923,444.925720 
	C313.386780,436.573029 308.454224,432.313171 300.040283,432.122009 
	C297.380249,432.061584 294.720032,432.008606 292.059906,431.952209 
	C292.056366,413.289398 291.699249,394.617554 292.177002,375.967072 
	C292.481384,364.084045 282.356354,354.409637 271.286926,354.804932 
	C254.145660,355.417084 236.966400,354.944519 219.803345,354.974304 
	C207.524994,354.995605 199.081451,363.345612 199.067123,375.666748 
	C199.022720,413.825439 199.063263,451.984222 199.024414,490.616699 
	C198.977982,491.090454 198.585083,490.969025 198.295410,490.561859 
	C166.411804,443.301758 134.839188,396.434387 103.205482,349.608337 
	C97.077835,340.537811 90.711777,331.628418 84.418121,322.380035 
	C84.363480,321.761749 84.346397,321.408112 84.329315,321.054474 
	C85.391113,320.677216 86.591774,320.504364 87.493706,319.891724 
	C99.412209,311.795715 110.978210,303.131104 123.248474,295.614380 
	C141.656418,284.337708 160.551071,273.855530 179.589813,262.976929 
z"/>
<path fill="#020101" opacity="1.000000" stroke="none" 
	d="
M291.893494,209.987106 
	C293.078186,208.464813 294.104034,206.779388 295.472992,205.446304 
	C305.412384,195.767334 312.536591,184.423386 316.533203,170.512299 
	C317.853058,170.200653 318.816956,170.364395 319.784790,170.499771 
	C324.888214,171.213638 328.899841,169.348145 331.458740,164.963943 
	C334.032196,160.554779 333.535492,156.148193 330.445984,152.071381 
	C329.665619,151.041595 328.829529,150.054047 328.019043,149.047089 
	C335.674500,137.567047 334.701416,125.192825 325.570465,118.175438 
	C324.928680,117.682236 324.161682,117.351997 323.083771,116.734543 
	C322.722504,117.834747 322.287689,118.667778 322.190094,119.538605 
	C321.690491,123.996849 319.011108,126.141388 314.777893,125.915337 
	C310.449890,125.684212 309.337982,122.665100 308.907745,118.682205 
	C307.930603,109.635986 307.840363,100.174255 304.949341,91.715462 
	C296.837524,67.981400 278.990906,55.409225 254.540024,51.970036 
	C238.227524,49.675568 222.232468,51.672089 206.955872,57.695004 
	C184.809280,66.426468 174.664719,83.796280 172.977234,106.841866 
	C172.673096,110.995514 172.389191,115.150909 172.135040,119.307892 
	C171.892014,123.282837 169.726044,125.617760 165.849503,125.630867 
	C162.032120,125.643776 159.776413,123.210075 159.077637,119.504257 
	C158.750580,117.769798 158.712845,115.980782 158.484360,113.593544 
	C152.394791,117.438087 149.869095,122.859200 150.285233,128.929733 
	C150.686325,134.780701 152.710037,140.520432 153.883118,146.933167 
	C148.092331,152.036896 146.490067,156.879227 148.906250,162.182007 
	C151.272827,167.375931 156.550293,169.805511 162.526657,168.469208 
	C163.325150,168.290665 164.141602,168.192459 164.949738,168.057037 
	C168.317398,182.108948 175.364227,194.066422 185.245880,204.537521 
	C186.649826,206.025223 187.475342,208.786499 187.327652,210.870361 
	C186.930359,216.475800 185.861435,222.033630 184.966187,227.968048 
	C172.812698,230.976135 162.229004,228.356903 154.240128,218.677460 
	C145.129059,207.638351 145.361023,195.598572 151.904831,183.291275 
	C114.990402,182.249756 95.075119,152.051727 99.065758,123.607491 
	C102.249863,100.911942 123.446930,74.758743 160.930817,80.281998 
	C175.964111,39.771923 203.209549,14.702312 248.235245,18.504129 
	C285.833282,21.678780 308.662842,45.572979 320.683105,81.004784 
	C337.797638,79.639946 352.937195,84.681519 364.882629,97.764893 
	C373.267914,106.948921 377.501251,117.841431 378.235291,130.314133 
	C379.508423,151.947098 364.979553,180.112854 329.791870,184.289886 
	C335.662140,197.035980 335.503174,209.245361 325.620758,219.938217 
	C317.562134,228.657715 307.351959,230.933640 295.436188,227.820312 
	C293.928955,221.549896 292.911224,215.768509 291.893494,209.987106 
z"/>
<path fill="#0EAD69" opacity="1.000000" stroke="none" 
	d="
M314.899048,457.372253 
	C327.588989,437.877228 340.315033,418.405579 352.959839,398.881378 
	C369.225708,373.766022 385.426422,348.608490 401.811584,323.160980 
	C401.967896,322.852814 402.380707,322.860565 402.584045,322.834259 
	C418.025818,338.641541 429.970093,356.626099 437.607391,377.272308 
	C440.239563,384.388000 441.956268,391.842377 444.159576,399.536743 
	C440.542847,404.729034 437.209991,409.854248 433.108948,414.265167 
	C418.572388,429.899750 402.718628,444.065094 384.764984,455.736206 
	C363.315796,469.679565 340.445587,480.512939 315.169739,486.704651 
	C314.764130,476.683197 314.831604,467.027710 314.899048,457.372253 
z"/>
<path fill="#3E60FF" opacity="1.000000" stroke="none" 
	d="
M84.020615,320.874878 
	C84.346397,321.408112 84.363480,321.761749 84.149765,322.652802 
	C65.012955,342.021301 52.255062,364.437347 44.944912,390.029968 
	C25.711388,362.375519 12.349940,332.198303 5.966244,299.046204 
	C4.829627,293.143463 3.979179,287.185577 3.063201,280.851044 
	C9.382453,278.820160 15.715398,277.441498 21.857832,275.469452 
	C25.586779,274.272278 28.434696,274.615326 31.482533,277.140289 
	C42.106483,285.941650 52.919167,294.514832 63.595623,303.253510 
	C66.508362,305.637573 69.476974,306.982544 73.550377,305.242615 
	C77.187447,310.367523 80.449677,315.531403 84.020615,320.874878 
z"/>
<path fill="#CC6942" opacity="1.000000" stroke="none" 
	d="
M291.549622,210.027313 
	C292.911224,215.768509 293.928955,221.549896 295.036743,227.747253 
	C295.078766,228.582413 295.030670,229.001648 294.896484,229.725952 
	C282.481476,238.297409 268.569183,242.347916 254.051285,242.639084 
	C245.337479,242.813858 236.412369,240.466507 227.868668,238.181580 
	C222.518036,236.750641 217.524277,233.613297 212.735641,230.651154 
	C211.019089,229.589340 210.373627,226.796005 209.239334,224.792938 
	C211.291733,224.410858 213.454773,223.409653 215.377502,223.753220 
	C223.983765,225.291153 232.452759,228.142273 241.099854,228.782059 
	C254.862076,229.800278 267.562622,225.428375 279.138519,217.931458 
	C283.168365,215.321609 287.183746,212.689468 291.549622,210.027313 
z"/>
<path fill="#FF725B" opacity="1.000000" stroke="none" 
	d="
M22.093475,147.218170 
	C38.185688,156.451630 40.496365,177.155045 26.958221,191.238037 
	C19.356602,199.145584 11.464189,206.773590 3.428059,214.675201 
	C4.883713,205.304764 5.836357,195.559784 8.530946,186.322952 
	C12.353805,173.218491 17.459526,160.488297 22.093475,147.218170 
z"/>
<path fill="#0EAD69" opacity="1.000000" stroke="none" 
	d="
M45.078705,390.345703 
	C52.255062,364.437347 65.012955,342.021301 84.187325,322.917450 
	C90.711777,331.628418 97.077835,340.537811 103.205482,349.608337 
	C134.839188,396.434387 166.411804,443.301758 198.104370,490.485840 
	C188.713058,488.509613 178.970291,486.933899 169.780334,483.758362 
	C141.553696,474.004852 115.592728,460.087372 92.344429,441.039886 
	C74.343224,426.291382 58.811539,409.429443 45.078705,390.345703 
z"/>
<path fill="#E37C4E" opacity="1.000000" stroke="none" 
	d="
M314.836517,456.877960 
	C314.831604,467.027710 314.764130,476.683197 314.777008,486.834045 
	C304.234985,489.567017 293.612640,491.804596 282.588989,493.959045 
	C270.141693,488.315521 258.293213,482.260956 245.989777,477.344940 
	C235.406326,473.116119 227.977966,466.443756 223.880859,455.836945 
	C222.327362,451.815186 220.145828,448.040741 218.418549,444.080292 
	C215.371597,437.093933 218.547913,432.190613 226.232956,432.163177 
	C247.861481,432.085938 269.490387,432.114716 291.589539,432.026947 
	C294.720032,432.008606 297.380249,432.061584 300.040283,432.122009 
	C308.454224,432.313171 313.386780,436.573029 314.376923,444.925720 
	C314.825226,448.707581 314.660583,452.562134 314.836517,456.877960 
z"/>
<path fill="#FBFBFF" opacity="1.000000" stroke="none" 
	d="
M480.554016,335.728455 
	C479.464935,332.358063 478.347351,328.827454 477.967590,325.219147 
	C477.431274,320.123352 475.076752,317.147858 470.021637,315.944092 
	C468.304321,315.535187 466.868988,313.942047 465.304810,312.890045 
	C466.793518,311.777557 468.137756,310.061615 469.797638,309.664276 
	C475.042450,308.408783 477.634186,305.296875 477.940033,300.023529 
	C477.996979,299.041168 478.187531,298.013641 478.567596,297.112915 
	C479.706055,294.414948 480.968994,291.769470 482.183380,289.103516 
	C483.349426,291.861755 484.682617,294.563690 485.636658,297.393402 
	C486.684235,300.500580 487.382568,303.725464 488.570618,307.095245 
	C486.570892,315.655914 484.238892,324.021881 481.889648,332.382996 
	C481.590942,333.446167 481.201965,334.483948 480.554016,335.728455 
z"/>
<path fill="#E69B49" opacity="1.000000" stroke="none" 
	d="
M459.839355,198.285614 
	C457.752960,194.028488 458.570923,190.336838 461.775421,189.314102 
	C465.238678,188.208801 468.363739,189.152740 469.255066,192.900055 
	C469.662750,194.613922 468.811859,197.983368 467.687500,198.418030 
	C465.468628,199.275818 462.661407,198.611694 459.839355,198.285614 
z"/>
<path fill="#0D0A06" opacity="1.000000" stroke="none" 
	d="
M468.940033,172.968018 
	C472.104584,170.944061 475.159149,169.084366 478.430725,167.761185 
	C479.237396,167.434921 480.750183,168.854630 481.938385,169.471710 
	C481.112732,170.323685 480.430389,171.450256 479.432007,171.971329 
	C477.253693,173.108215 474.979858,174.223801 472.611816,174.762360 
	C471.541809,175.005722 470.153809,173.850739 468.940033,172.968018 
z"/>
<path fill="#2D2113" opacity="1.000000" stroke="none" 
	d="
M474.488220,185.983429 
	C473.708466,185.272797 472.854065,184.072037 473.070007,183.831299 
	C475.635132,180.971405 479.917572,181.700104 482.919891,185.939316 
	C479.978119,185.939316 477.444458,185.939316 474.488220,185.983429 
z"/>
<path fill="#FCBA6C" opacity="1.000000" stroke="none" 
	d="
M327.612732,148.997940 
	C328.829529,150.054047 329.665619,151.041595 330.445984,152.071381 
	C333.535492,156.148193 334.032196,160.554779 331.458740,164.963943 
	C328.899841,169.348145 324.888214,171.213638 319.784790,170.499771 
	C318.816956,170.364395 317.853058,170.200653 316.507263,170.129135 
	C315.532532,169.436432 315.001831,168.603592 314.333038,167.902527 
	C309.541870,162.880066 308.848053,158.750214 311.917786,153.237350 
	C314.100677,149.317215 319.450958,147.198898 324.868225,148.162155 
	C325.668915,148.304520 326.428040,148.680771 327.612732,148.997940 
z"/>
<path fill="#FCBA6C" opacity="1.000000" stroke="none" 
	d="
M165.089706,167.743927 
	C164.141602,168.192459 163.325150,168.290665 162.526657,168.469208 
	C156.550293,169.805511 151.272827,167.375931 148.906250,162.182007 
	C146.490067,156.879227 148.092331,152.036896 153.980469,147.300552 
	C159.567947,145.019730 164.146591,146.045120 167.975998,150.397049 
	C170.992416,153.825043 171.901016,157.685822 169.837112,161.747711 
	C168.756912,163.873596 166.793961,165.550919 165.089706,167.743927 
z"/>
<path fill="#090503" opacity="1.000000" stroke="none" 
	d="
M195.527298,108.350754 
	C193.100525,105.389709 193.792191,102.563805 196.379562,101.257050 
	C202.370178,98.231476 208.588745,95.574448 214.915482,93.334587 
	C217.786652,92.318092 220.625610,94.328552 220.472809,97.346024 
	C220.386780,99.044731 217.994232,101.178314 216.135880,102.126976 
	C211.484177,104.501602 206.605453,106.480507 201.688217,108.260048 
	C199.911697,108.902962 197.765854,108.525383 195.527298,108.350754 
z"/>
<path fill="#060302" opacity="1.000000" stroke="none" 
	d="
M285.189514,107.291153 
	C282.684143,107.379265 280.300537,107.602402 278.193298,106.942696 
	C273.532623,105.483597 268.893982,103.827553 264.488098,101.741310 
	C262.631836,100.862343 260.430420,98.878372 260.080292,97.068825 
	C259.510345,94.123383 261.945557,92.718407 264.861725,92.874306 
	C272.020721,93.257042 278.437408,95.718414 284.085022,100.110115 
	C286.473297,101.967270 287.331665,104.262764 285.189514,107.291153 
z"/>
<path fill="#0A0603" opacity="1.000000" stroke="none" 
	d="
M276.032318,163.054047 
	C276.026581,164.825424 276.216156,166.604568 275.466614,167.789795 
	C269.183807,177.724564 253.837051,183.507217 242.497086,180.129623 
	C241.024948,179.691162 239.990189,177.784271 238.752823,176.557587 
	C240.263657,175.991302 241.916412,174.705704 243.263077,174.971405 
	C255.125946,177.312073 264.505005,173.720444 271.731232,164.021652 
	C272.411682,163.108337 274.407318,163.174881 276.032318,163.054047 
z"/>
<path fill="#0A0503" opacity="1.000000" stroke="none" 
	d="
M279.708069,129.226013 
	C272.824188,129.608780 266.118256,129.608780 258.995789,129.608780 
	C258.412964,124.897354 262.163757,123.860756 265.587341,123.039948 
	C273.057892,121.248863 277.900238,123.353172 279.708069,129.226013 
z"/>
<path fill="#0B0604" opacity="1.000000" stroke="none" 
	d="
M201.673492,126.986816 
	C207.245728,122.562660 214.465942,121.614098 219.023865,124.847153 
	C220.438873,125.850861 221.070938,127.958336 222.061447,129.560486 
	C220.461151,129.845688 218.869858,130.295761 217.258774,130.383835 
	C213.140518,130.609009 209.004410,130.547653 204.893066,130.844940 
	C202.112473,131.045975 199.986542,131.042740 201.673492,126.986816 
z"/>
</svg>